<?xml version="1.0" standalone="no"?>
<!DOCTYPE svg PUBLIC "-//W3C//DTD SVG 20010904//EN"
 "http://www.w3.org/TR/2001/REC-SVG-20010904/DTD/svg10.dtd">
<svg version="1.0" xmlns="http://www.w3.org/2000/svg"
 width="128.000000pt" height="128.000000pt" viewBox="0 0 128.000000 128.000000"
 preserveAspectRatio="xMidYMid meet">

<g transform="translate(0.000000,128.000000) scale(0.100000,-0.100000)"
fill="#000000" stroke="none">
<path d="M533 1254 c-139 -50 -213 -221 -169 -394 18 -74 64 -168 107 -219 34
-41 38 -88 12 -120 -10 -11 -55 -36 -99 -55 -198 -83 -284 -166 -284 -272 0
-42 4 -51 40 -85 74 -71 217 -99 500 -99 286 0 432 29 503 101 38 38 39 41 35
98 -3 45 -11 68 -32 96 -39 50 -144 118 -251 160 -49 20 -96 44 -102 53 -20
25 -15 76 11 113 90 125 121 211 121 334 0 73 -5 100 -24 143 -29 64 -94 124
-158 146 -57 20 -154 19 -210 0z"/>
</g>
</svg>
